<?xml version="1.0" encoding="utf-8"?>
<!-- Generator: Adobe Illustrator 24.3.0, SVG Export Plug-In . SVG Version: 6.00 Build 0)  -->
<svg version="1.1" id="Layer_1" xmlns="http://www.w3.org/2000/svg" xmlns:xlink="http://www.w3.org/1999/xlink" x="0px" y="0px"
	 viewBox="0 0 122.1 122.9" style="enable-background:new 0 0 122.1 122.9;" xml:space="preserve">
<style type="text/css">
	.st0{fill:#FFFFFF;stroke:#000000;stroke-miterlimit:10;}
</style>
<g id="Layer_2">
	<polygon class="st0" points="104.8,9.4 71.9,4.3 33.6,3.3 11.6,15.1 5.5,27.1 5.5,92.2 10.3,107.5 25.5,116.2 83.4,118.5 
		100.7,114.2 116.3,100.8 116.3,34.7 113.5,18.4 	"/>
</g>
<g>
	<path d="M35.1,0H87c9.7,0,18.4,4,24.8,10.3c6.4,6.4,10.3,15.2,10.3,24.8v52.6c0,9.6-4,18.4-10.3,24.8l0,0
		c-6.4,6.4-15.2,10.3-24.8,10.3H35.1c-9.7,0-18.5-4-24.8-10.3l-0.2-0.3C3.9,105.9,0,97.3,0,87.7V35.1c0-9.7,4-18.5,10.3-24.8
		S25.5,0,35.1,0L35.1,0z M91.5,31l0.1,0.1h21.6c-0.9-5.7-3.6-10.8-7.5-14.7c-4.8-4.8-11.4-7.8-18.7-7.8h-8.9L91.5,31L91.5,31z
		 M81.5,31.1L68.1,8.7H38.6l13.6,22.5H81.5L81.5,31.1z M42.1,31.1L29,9.4c-4.8,1.2-9.1,3.7-12.5,7c-3.9,3.9-6.6,9-7.5,14.7
		L42.1,31.1L42.1,31.1z M113.5,39.8H8.7v48c0,7.2,2.9,13.7,7.6,18.5l0.2,0.2c4.8,4.8,11.4,7.8,18.7,7.8H87c7.3,0,13.9-3,18.7-7.8
		l0,0c4.8-4.8,7.8-11.4,7.8-18.7L113.5,39.8L113.5,39.8z M51,54.9l26.8,17.5c0.4,0.3,0.8,0.6,1.1,1.1c1.2,1.8,0.8,4.2-1,5.4
		L51.2,94.7c-0.7,0.6-1.5,0.9-2.5,0.9c-2.2,0-3.9-1.8-3.9-3.9V58.1h0c0-0.8,0.2-1.5,0.7-2.2C46.8,54.1,49.2,53.7,51,54.9L51,54.9
		L51,54.9z"/>
</g>
</svg>
